
<svg version="1.0" xmlns="http://www.w3.org/2000/svg"
 width="31.000000pt" height="40.000000pt" viewBox="0 0 31.000000 40.000000"
 preserveAspectRatio="xMidYMid meet">
<metadata>
Created by potrace 1.15, written by Peter Selinger 2001-2017
</metadata>
<g transform="translate(0.000000,40.000000) scale(0.100000,-0.100000)"
fill="#034778" stroke="none">
<path d="M112 374 c-14 -16 -28 -24 -38 -20 -8 3 -24 1 -35 -5 -17 -9 -19 -17
-14 -48 5 -28 2 -41 -9 -51 -9 -7 -16 -24 -16 -39 0 -20 7 -29 30 -38 22 -8
30 -18 30 -36 0 -30 23 -51 50 -44 11 3 18 1 14 -4 -7 -12 -41 -11 -49 1 -11
18 -23 11 -34 -21 -15 -44 -14 -51 8 -44 10 3 24 -1 31 -10 7 -8 17 -15 22
-15 12 0 50 89 42 101 -3 5 2 9 11 9 9 0 14 -4 11 -9 -8 -12 30 -101 42 -101
5 0 15 7 22 15 7 9 21 13 31 10 22 -7 23 0 8 44 -11 32 -23 39 -34 21 -8 -12
-42 -13 -49 -1 -4 5 3 7 14 4 27 -7 50 14 50 44 0 18 8 28 30 36 23 9 30 18
30 38 0 15 -7 32 -16 39 -11 10 -14 23 -9 51 5 31 3 39 -14 48 -11 6 -26 8
-35 5 -9 -3 -25 5 -39 20 -31 33 -56 33 -85 0z"/>
</g>
</svg>
